{
	"asset":{
		"generator":"Khronos glTF Blender I/O v4.3.47",
		"version":"2.0"
	},
	"scene":0,
	"scenes":[
		{
			"name":"Scene",
			"nodes":[
				0,
				1
			]
		}
	],
	"nodes":[
		{
			"mesh":0,
			"name":"lines.001"
		},
		{
			"mesh":1,
			"name":"Torus.001"
		}
	],
	"materials":[
		{
			"doubleSided":true,
			"name":"Material.002",
			"pbrMetallicRoughness":{
				"baseColorFactor":[
					0.0018204891821369529,
					0.47931981086730957,
					0.4735315144062042,
					1
				],
				"metallicFactor":0,
				"roughnessFactor":0
			}
		},
		{
			"doubleSided":true,
			"name":"Material.004",
			"pbrMetallicRoughness":{
				"baseColorFactor":[
					0.964686393737793,
					0.23455026745796204,
					0.01764204353094101,
					1
				],
				"metallicFactor":0,
				"roughnessFactor":0
			}
		}
	],
	"meshes":[
		{
			"name":"Cylinder.002",
			"primitives":[
				{
					"attributes":{
						"POSITION":0,
						"NORMAL":1,
						"TEXCOORD_0":2
					},
					"indices":3,
					"material":0
				}
			]
		},
		{
			"name":"Torus.002",
			"primitives":[
				{
					"attributes":{
						"POSITION":4,
						"NORMAL":5,
						"TEXCOORD_0":6
					},
					"indices":7,
					"material":1
				}
			]
		}
	],
	"accessors":[
		{
			"bufferView":0,
			"componentType":5126,
			"count":2086,
			"max":[
				3.932915687561035,
				6.198694705963135,
				0.5000000596046448
			],
			"min":[
				-6.022745132446289,
				-5.970236778259277,
				-0.5480977296829224
			],
			"type":"VEC3"
		},
		{
			"bufferView":1,
			"componentType":5126,
			"count":2086,
			"type":"VEC3"
		},
		{
			"bufferView":2,
			"componentType":5126,
			"count":2086,
			"type":"VEC2"
		},
		{
			"bufferView":3,
			"componentType":5123,
			"count":11430,
			"type":"SCALAR"
		},
		{
			"bufferView":4,
			"componentType":5126,
			"count":3185,
			"max":[
				6.39864444732666,
				7.12060022354126,
				0.5646404027938843
			],
			"min":[
				-8.541776657104492,
				-7.049849510192871,
				-0.4780181050300598
			],
			"type":"VEC3"
		},
		{
			"bufferView":5,
			"componentType":5126,
			"count":3185,
			"type":"VEC3"
		},
		{
			"bufferView":6,
			"componentType":5126,
			"count":3185,
			"type":"VEC2"
		},
		{
			"bufferView":7,
			"componentType":5123,
			"count":17280,
			"type":"SCALAR"
		}
	],
	"bufferViews":[
		{
			"buffer":0,
			"byteLength":25032,
			"byteOffset":0,
			"target":34962
		},
		{
			"buffer":0,
			"byteLength":25032,
			"byteOffset":25032,
			"target":34962
		},
		{
			"buffer":0,
			"byteLength":16688,
			"byteOffset":50064,
			"target":34962
		},
		{
			"buffer":0,
			"byteLength":22860,
			"byteOffset":66752,
			"target":34963
		},
		{
			"buffer":0,
			"byteLength":38220,
			"byteOffset":89612,
			"target":34962
		},
		{
			"buffer":0,
			"byteLength":38220,
			"byteOffset":127832,
			"target":34962
		},
		{
			"buffer":0,
			"byteLength":25480,
			"byteOffset":166052,
			"target":34962
		},
		{
			"buffer":0,
			"byteLength":34560,
			"byteOffset":191532,
			"target":34963
		}
	],
	"buffers":[
		{
			"byteLength":226092,
			"uri":"logo3.bin"
		}
	]
}
